<svg class="rich-terminal" viewBox="0 0 1482 928.4" xmlns="http://www.w3.org/2000/svg">
    <!-- Generated with Rich https://www.textualize.io -->
    <style>

    @font-face {
        font-family: "Fira Code";
        src: local("FiraCode-Regular"),
                url("https://cdnjs.cloudflare.com/ajax/libs/firacode/6.2.0/woff2/FiraCode-Regular.woff2") format("woff2"),
                url("https://cdnjs.cloudflare.com/ajax/libs/firacode/6.2.0/woff/FiraCode-Regular.woff") format("woff");
        font-style: normal;
        font-weight: 400;
    }
    @font-face {
        font-family: "Fira Code";
        src: local("FiraCode-Bold"),
                url("https://cdnjs.cloudflare.com/ajax/libs/firacode/6.2.0/woff2/FiraCode-Bold.woff2") format("woff2"),
                url("https://cdnjs.cloudflare.com/ajax/libs/firacode/6.2.0/woff/FiraCode-Bold.woff") format("woff");
        font-style: bold;
        font-weight: 700;
    }

    .terminal-3994067903-matrix {
        font-family: Fira Code, monospace;
        font-size: 20px;
        line-height: 24.4px;
        font-variant-east-asian: full-width;
    }

    .terminal-3994067903-title {
        font-size: 18px;
        font-weight: bold;
        font-family: arial;
    }

    .terminal-3994067903-r1 { fill: #c5c8c6 }
.terminal-3994067903-r2 { fill: #e0e0e0 }
.terminal-3994067903-r3 { fill: #a0a3a6 }
.terminal-3994067903-r4 { fill: #ddedf9;font-weight: bold }
.terminal-3994067903-r5 { fill: #7f7f7f }
.terminal-3994067903-r6 { fill: #585858 }
.terminal-3994067903-r7 { fill: #0178d4 }
.terminal-3994067903-r8 { fill: #1e1e1e }
.terminal-3994067903-r9 { fill: #191919 }
.terminal-3994067903-r10 { fill: #e1e1e1 }
.terminal-3994067903-r11 { fill: #fea62b }
.terminal-3994067903-r12 { fill: #a5a5a5 }
.terminal-3994067903-r13 { fill: #ffa62b;font-weight: bold }
.terminal-3994067903-r14 { fill: #495259 }
    </style>

    <defs>
    <clipPath id="terminal-3994067903-clip-terminal">
      <rect x="0" y="0" width="1463.0" height="877.4" />
    </clipPath>
    <clipPath id="terminal-3994067903-line-0">
    <rect x="0" y="1.5" width="1464" height="24.65"/>
            </clipPath>
<clipPath id="terminal-3994067903-line-1">
    <rect x="0" y="25.9" width="1464" height="24.65"/>
            </clipPath>
<clipPath id="terminal-3994067903-line-2">
    <rect x="0" y="50.3" width="1464" height="24.65"/>
            </clipPath>
<clipPath id="terminal-3994067903-line-3">
    <rect x="0" y="74.7" width="1464" height="24.65"/>
            </clipPath>
<clipPath id="terminal-3994067903-line-4">
    <rect x="0" y="99.1" width="1464" height="24.65"/>
            </clipPath>
<clipPath id="terminal-3994067903-line-5">
    <rect x="0" y="123.5" width="1464" height="24.65"/>
            </clipPath>
<clipPath id="terminal-3994067903-line-6">
    <rect x="0" y="147.9" width="1464" height="24.65"/>
            </clipPath>
<clipPath id="terminal-3994067903-line-7">
    <rect x="0" y="172.3" width="1464" height="24.65"/>
            </clipPath>
<clipPath id="terminal-3994067903-line-8">
    <rect x="0" y="196.7" width="1464" height="24.65"/>
            </clipPath>
<clipPath id="terminal-3994067903-line-9">
    <rect x="0" y="221.1" width="1464" height="24.65"/>
            </clipPath>
<clipPath id="terminal-3994067903-line-10">
    <rect x="0" y="245.5" width="1464" height="24.65"/>
            </clipPath>
<clipPath id="terminal-3994067903-line-11">
    <rect x="0" y="269.9" width="1464" height="24.65"/>
            </clipPath>
<clipPath id="terminal-3994067903-line-12">
    <rect x="0" y="294.3" width="1464" height="24.65"/>
            </clipPath>
<clipPath id="terminal-3994067903-line-13">
    <rect x="0" y="318.7" width="1464" height="24.65"/>
            </clipPath>
<clipPath id="terminal-3994067903-line-14">
    <rect x="0" y="343.1" width="1464" height="24.65"/>
            </clipPath>
<clipPath id="terminal-3994067903-line-15">
    <rect x="0" y="367.5" width="1464" height="24.65"/>
            </clipPath>
<clipPath id="terminal-3994067903-line-16">
    <rect x="0" y="391.9" width="1464" height="24.65"/>
            </clipPath>
<clipPath id="terminal-3994067903-line-17">
    <rect x="0" y="416.3" width="1464" height="24.65"/>
            </clipPath>
<clipPath id="terminal-3994067903-line-18">
    <rect x="0" y="440.7" width="1464" height="24.65"/>
            </clipPath>
<clipPath id="terminal-3994067903-line-19">
    <rect x="0" y="465.1" width="1464" height="24.65"/>
            </clipPath>
<clipPath id="terminal-3994067903-line-20">
    <rect x="0" y="489.5" width="1464" height="24.65"/>
            </clipPath>
<clipPath id="terminal-3994067903-line-21">
    <rect x="0" y="513.9" width="1464" height="24.65"/>
            </clipPath>
<clipPath id="terminal-3994067903-line-22">
    <rect x="0" y="538.3" width="1464" height="24.65"/>
            </clipPath>
<clipPath id="terminal-3994067903-line-23">
    <rect x="0" y="562.7" width="1464" height="24.65"/>
            </clipPath>
<clipPath id="terminal-3994067903-line-24">
    <rect x="0" y="587.1" width="1464" height="24.65"/>
            </clipPath>
<clipPath id="terminal-3994067903-line-25">
    <rect x="0" y="611.5" width="1464" height="24.65"/>
            </clipPath>
<clipPath id="terminal-3994067903-line-26">
    <rect x="0" y="635.9" width="1464" height="24.65"/>
            </clipPath>
<clipPath id="terminal-3994067903-line-27">
    <rect x="0" y="660.3" width="1464" height="24.65"/>
            </clipPath>
<clipPath id="terminal-3994067903-line-28">
    <rect x="0" y="684.7" width="1464" height="24.65"/>
            </clipPath>
<clipPath id="terminal-3994067903-line-29">
    <rect x="0" y="709.1" width="1464" height="24.65"/>
            </clipPath>
<clipPath id="terminal-3994067903-line-30">
    <rect x="0" y="733.5" width="1464" height="24.65"/>
            </clipPath>
<clipPath id="terminal-3994067903-line-31">
    <rect x="0" y="757.9" width="1464" height="24.65"/>
            </clipPath>
<clipPath id="terminal-3994067903-line-32">
    <rect x="0" y="782.3" width="1464" height="24.65"/>
            </clipPath>
<clipPath id="terminal-3994067903-line-33">
    <rect x="0" y="806.7" width="1464" height="24.65"/>
            </clipPath>
<clipPath id="terminal-3994067903-line-34">
    <rect x="0" y="831.1" width="1464" height="24.65"/>
            </clipPath>
    </defs>

    <rect fill="#292929" stroke="rgba(255,255,255,0.35)" stroke-width="1" x="1" y="1" width="1480" height="926.4" rx="8"/><text class="terminal-3994067903-title" fill="#c5c8c6" text-anchor="middle" x="740" y="27">MOSAIC&#160;v0.01</text>
            <g transform="translate(26,22)">
            <circle cx="0" cy="0" r="7" fill="#ff5f57"/>
            <circle cx="22" cy="0" r="7" fill="#febc2e"/>
            <circle cx="44" cy="0" r="7" fill="#28c840"/>
            </g>
        
    <g transform="translate(9, 41)" clip-path="url(#terminal-3994067903-clip-terminal)">
    <rect fill="#242f38" x="0" y="1.5" width="12.2" height="24.65" shape-rendering="crispEdges"/><rect fill="#242f38" x="12.2" y="1.5" width="12.2" height="24.65" shape-rendering="crispEdges"/><rect fill="#242f38" x="24.4" y="1.5" width="61" height="24.65" shape-rendering="crispEdges"/><rect fill="#242f38" x="85.4" y="1.5" width="12.2" height="24.65" shape-rendering="crispEdges"/><rect fill="#242f38" x="97.6" y="1.5" width="353.8" height="24.65" shape-rendering="crispEdges"/><rect fill="#242f38" x="451.4" y="1.5" width="146.4" height="24.65" shape-rendering="crispEdges"/><rect fill="#242f38" x="597.8" y="1.5" width="36.6" height="24.65" shape-rendering="crispEdges"/><rect fill="#242f38" x="634.4" y="1.5" width="353.8" height="24.65" shape-rendering="crispEdges"/><rect fill="#242f38" x="988.2" y="1.5" width="353.8" height="24.65" shape-rendering="crispEdges"/><rect fill="#242f38" x="1342" y="1.5" width="12.2" height="24.65" shape-rendering="crispEdges"/><rect fill="#242f38" x="1354.2" y="1.5" width="0" height="24.65" shape-rendering="crispEdges"/><rect fill="#242f38" x="1354.2" y="1.5" width="97.6" height="24.65" shape-rendering="crispEdges"/><rect fill="#242f38" x="1451.8" y="1.5" width="12.2" height="24.65" shape-rendering="crispEdges"/><rect fill="#0178d4" x="0" y="25.9" width="12.2" height="24.65" shape-rendering="crispEdges"/><rect fill="#0178d4" x="12.2" y="25.9" width="170.8" height="24.65" shape-rendering="crispEdges"/><rect fill="#0178d4" x="183" y="25.9" width="12.2" height="24.65" shape-rendering="crispEdges"/><rect fill="#1e1e1e" x="195.2" y="25.9" width="12.2" height="24.65" shape-rendering="crispEdges"/><rect fill="#1e1e1e" x="207.4" y="25.9" width="48.8" height="24.65" shape-rendering="crispEdges"/><rect fill="#1e1e1e" x="256.2" y="25.9" width="12.2" height="24.65" shape-rendering="crispEdges"/><rect fill="#1e1e1e" x="268.4" y="25.9" width="12.2" height="24.65" shape-rendering="crispEdges"/><rect fill="#1e1e1e" x="280.6" y="25.9" width="109.8" height="24.65" shape-rendering="crispEdges"/><rect fill="#1e1e1e" x="390.4" y="25.9" width="12.2" height="24.65" shape-rendering="crispEdges"/><rect fill="#1e1e1e" x="402.6" y="25.9" width="12.2" height="24.65" shape-rendering="crispEdges"/><rect fill="#1e1e1e" x="414.8" y="25.9" width="85.4" height="24.65" shape-rendering="crispEdges"/><rect fill="#1e1e1e" x="500.2" y="25.9" width="12.2" height="24.65" shape-rendering="crispEdges"/><rect fill="#1e1e1e" x="512.4" y="25.9" width="12.2" height="24.65" shape-rendering="crispEdges"/><rect fill="#1e1e1e" x="524.6" y="25.9" width="97.6" height="24.65" shape-rendering="crispEdges"/><rect fill="#1e1e1e" x="622.2" y="25.9" width="12.2" height="24.65" shape-rendering="crispEdges"/><rect fill="#1e1e1e" x="634.4" y="25.9" width="829.6" height="24.65" shape-rendering="crispEdges"/><rect fill="#1e1e1e" x="0" y="50.3" width="12.2" height="24.65" shape-rendering="crispEdges"/><rect fill="#1e1e1e" x="12.2" y="50.3" width="170.8" height="24.65" shape-rendering="crispEdges"/><rect fill="#1e1e1e" x="183" y="50.3" width="12.2" height="24.65" shape-rendering="crispEdges"/><rect fill="#1e1e1e" x="195.2" y="50.3" width="1268.8" height="24.65" shape-rendering="crispEdges"/><rect fill="#1e1e1e" x="0" y="74.7" width="12.2" height="24.65" shape-rendering="crispEdges"/><rect fill="#1e1e1e" x="12.2" y="74.7" width="390.4" height="24.65" shape-rendering="crispEdges"/><rect fill="#191919" x="402.6" y="74.7" width="12.2" height="24.65" shape-rendering="crispEdges"/><rect fill="#1e1e1e" x="414.8" y="74.7" width="219.6" height="24.65" shape-rendering="crispEdges"/><rect fill="#1e1e1e" x="634.4" y="74.7" width="12.2" height="24.65" shape-rendering="crispEdges"/><rect fill="#1e1e1e" x="646.6" y="74.7" width="244" height="24.65" shape-rendering="crispEdges"/><rect fill="#1e1e1e" x="890.6" y="74.7" width="561.2" height="24.65" shape-rendering="crispEdges"/><rect fill="#1e1e1e" x="1451.8" y="74.7" width="12.2" height="24.65" shape-rendering="crispEdges"/><rect fill="#1e1e1e" x="0" y="99.1" width="12.2" height="24.65" shape-rendering="crispEdges"/><rect fill="#1e1e1e" x="12.2" y="99.1" width="12.2" height="24.65" shape-rendering="crispEdges"/><rect fill="#1e1e1e" x="24.4" y="99.1" width="158.6" height="24.65" shape-rendering="crispEdges"/><rect fill="#1e1e1e" x="183" y="99.1" width="207.4" height="24.65" shape-rendering="crispEdges"/><rect fill="#1e1e1e" x="390.4" y="99.1" width="12.2" height="24.65" shape-rendering="crispEdges"/><rect fill="#191919" x="402.6" y="99.1" width="12.2" height="24.65" shape-rendering="crispEdges"/><rect fill="#1e1e1e" x="414.8" y="99.1" width="24.4" height="24.65" shape-rendering="crispEdges"/><rect fill="#1e1e1e" x="439.2" y="99.1" width="36.6" height="24.65" shape-rendering="crispEdges"/><rect fill="#1e1e1e" x="475.8" y="99.1" width="134.2" height="24.65" shape-rendering="crispEdges"/><rect fill="#1e1e1e" x="610" y="99.1" width="24.4" height="24.65" shape-rendering="crispEdges"/><rect fill="#1e1e1e" x="634.4" y="99.1" width="12.2" height="24.65" shape-rendering="crispEdges"/><rect fill="#1e1e1e" x="646.6" y="99.1" width="170.8" height="24.65" shape-rendering="crispEdges"/><rect fill="#1e1e1e" x="817.4" y="99.1" width="61" height="24.65" shape-rendering="crispEdges"/><rect fill="#1e1e1e" x="878.4" y="99.1" width="12.2" height="24.65" shape-rendering="crispEdges"/><rect fill="#1e1e1e" x="890.6" y="99.1" width="561.2" height="24.65" shape-rendering="crispEdges"/><rect fill="#1e1e1e" x="1451.8" y="99.1" width="12.2" height="24.65" shape-rendering="crispEdges"/><rect fill="#1e1e1e" x="0" y="123.5" width="12.2" height="24.65" shape-rendering="crispEdges"/><rect fill="#1e1e1e" x="12.2" y="123.5" width="12.2" height="24.65" shape-rendering="crispEdges"/><rect fill="#1e1e1e" x="24.4" y="123.5" width="366" height="24.65" shape-rendering="crispEdges"/><rect fill="#1e1e1e" x="390.4" y="123.5" width="12.2" height="24.65" shape-rendering="crispEdges"/><rect fill="#191919" x="402.6" y="123.5" width="12.2" height="24.65" shape-rendering="crispEdges"/><rect fill="#1e1e1e" x="414.8" y="123.5" width="219.6" height="24.65" shape-rendering="crispEdges"/><rect fill="#1e1e1e" x="634.4" y="123.5" width="12.2" height="24.65" shape-rendering="crispEdges"/><rect fill="#1e1e1e" x="646.6" y="123.5" width="231.8" height="24.65" shape-rendering="crispEdges"/><rect fill="#1e1e1e" x="878.4" y="123.5" width="12.2" height="24.65" shape-rendering="crispEdges"/><rect fill="#1e1e1e" x="890.6" y="123.5" width="561.2" height="24.65" shape-rendering="crispEdges"/><rect fill="#1e1e1e" x="1451.8" y="123.5" width="12.2" height="24.65" shape-rendering="crispEdges"/><rect fill="#1e1e1e" x="0" y="147.9" width="12.2" height="24.65" shape-rendering="crispEdges"/><rect fill="#1e1e1e" x="12.2" y="147.9" width="390.4" height="24.65" shape-rendering="crispEdges"/><rect fill="#191919" x="402.6" y="147.9" width="12.2" height="24.65" shape-rendering="crispEdges"/><rect fill="#1e1e1e" x="414.8" y="147.9" width="219.6" height="24.65" shape-rendering="crispEdges"/><rect fill="#1e1e1e" x="634.4" y="147.9" width="12.2" height="24.65" shape-rendering="crispEdges"/><rect fill="#1e1e1e" x="646.6" y="147.9" width="244" height="24.65" shape-rendering="crispEdges"/><rect fill="#1e1e1e" x="890.6" y="147.9" width="561.2" height="24.65" shape-rendering="crispEdges"/><rect fill="#1e1e1e" x="1451.8" y="147.9" width="12.2" height="24.65" shape-rendering="crispEdges"/><rect fill="#1e1e1e" x="0" y="172.3" width="12.2" height="24.65" shape-rendering="crispEdges"/><rect fill="#1e1e1e" x="12.2" y="172.3" width="12.2" height="24.65" shape-rendering="crispEdges"/><rect fill="#1e1e1e" x="24.4" y="172.3" width="134.2" height="24.65" shape-rendering="crispEdges"/><rect fill="#1e1e1e" x="158.6" y="172.3" width="231.8" height="24.65" shape-rendering="crispEdges"/><rect fill="#1e1e1e" x="390.4" y="172.3" width="12.2" height="24.65" shape-rendering="crispEdges"/><rect fill="#191919" x="402.6" y="172.3" width="12.2" height="24.65" shape-rendering="crispEdges"/><rect fill="#1e1e1e" x="414.8" y="172.3" width="24.4" height="24.65" shape-rendering="crispEdges"/><rect fill="#1e1e1e" x="439.2" y="172.3" width="24.4" height="24.65" shape-rendering="crispEdges"/><rect fill="#1e1e1e" x="463.6" y="172.3" width="146.4" height="24.65" shape-rendering="crispEdges"/><rect fill="#1e1e1e" x="610" y="172.3" width="24.4" height="24.65" shape-rendering="crispEdges"/><rect fill="#1e1e1e" x="634.4" y="172.3" width="12.2" height="24.65" shape-rendering="crispEdges"/><rect fill="#1e1e1e" x="646.6" y="172.3" width="158.6" height="24.65" shape-rendering="crispEdges"/><rect fill="#1e1e1e" x="805.2" y="172.3" width="73.2" height="24.65" shape-rendering="crispEdges"/><rect fill="#1e1e1e" x="878.4" y="172.3" width="12.2" height="24.65" shape-rendering="crispEdges"/><rect fill="#1e1e1e" x="890.6" y="172.3" width="561.2" height="24.65" shape-rendering="crispEdges"/><rect fill="#1e1e1e" x="1451.8" y="172.3" width="12.2" height="24.65" shape-rendering="crispEdges"/><rect fill="#1e1e1e" x="0" y="196.7" width="12.2" height="24.65" shape-rendering="crispEdges"/><rect fill="#1e1e1e" x="12.2" y="196.7" width="12.2" height="24.65" shape-rendering="crispEdges"/><rect fill="#1e1e1e" x="24.4" y="196.7" width="366" height="24.65" shape-rendering="crispEdges"/><rect fill="#1e1e1e" x="390.4" y="196.7" width="12.2" height="24.65" shape-rendering="crispEdges"/><rect fill="#191919" x="402.6" y="196.7" width="12.2" height="24.65" shape-rendering="crispEdges"/><rect fill="#1e1e1e" x="414.8" y="196.7" width="219.6" height="24.65" shape-rendering="crispEdges"/><rect fill="#1e1e1e" x="634.4" y="196.7" width="12.2" height="24.65" shape-rendering="crispEdges"/><rect fill="#1e1e1e" x="646.6" y="196.7" width="231.8" height="24.65" shape-rendering="crispEdges"/><rect fill="#1e1e1e" x="878.4" y="196.7" width="12.2" height="24.65" shape-rendering="crispEdges"/><rect fill="#1e1e1e" x="890.6" y="196.7" width="561.2" height="24.65" shape-rendering="crispEdges"/><rect fill="#1e1e1e" x="1451.8" y="196.7" width="12.2" height="24.65" shape-rendering="crispEdges"/><rect fill="#1e1e1e" x="0" y="221.1" width="12.2" height="24.65" shape-rendering="crispEdges"/><rect fill="#1e1e1e" x="12.2" y="221.1" width="390.4" height="24.65" shape-rendering="crispEdges"/><rect fill="#191919" x="402.6" y="221.1" width="12.2" height="24.65" shape-rendering="crispEdges"/><rect fill="#1e1e1e" x="414.8" y="221.1" width="219.6" height="24.65" shape-rendering="crispEdges"/><rect fill="#1e1e1e" x="634.4" y="221.1" width="12.2" height="24.65" shape-rendering="crispEdges"/><rect fill="#1e1e1e" x="646.6" y="221.1" width="244" height="24.65" shape-rendering="crispEdges"/><rect fill="#1e1e1e" x="890.6" y="221.1" width="561.2" height="24.65" shape-rendering="crispEdges"/><rect fill="#1e1e1e" x="1451.8" y="221.1" width="12.2" height="24.65" shape-rendering="crispEdges"/><rect fill="#1e1e1e" x="0" y="245.5" width="12.2" height="24.65" shape-rendering="crispEdges"/><rect fill="#1e1e1e" x="12.2" y="245.5" width="12.2" height="24.65" shape-rendering="crispEdges"/><rect fill="#1e1e1e" x="24.4" y="245.5" width="97.6" height="24.65" shape-rendering="crispEdges"/><rect fill="#1e1e1e" x="122" y="245.5" width="268.4" height="24.65" shape-rendering="crispEdges"/><rect fill="#1e1e1e" x="390.4" y="245.5" width="12.2" height="24.65" shape-rendering="crispEdges"/><rect fill="#191919" x="402.6" y="245.5" width="12.2" height="24.65" shape-rendering="crispEdges"/><rect fill="#1e1e1e" x="414.8" y="245.5" width="24.4" height="24.65" shape-rendering="crispEdges"/><rect fill="#1e1e1e" x="439.2" y="245.5" width="12.2" height="24.65" shape-rendering="crispEdges"/><rect fill="#1e1e1e" x="451.4" y="245.5" width="158.6" height="24.65" shape-rendering="crispEdges"/><rect fill="#1e1e1e" x="610" y="245.5" width="24.4" height="24.65" shape-rendering="crispEdges"/><rect fill="#1e1e1e" x="634.4" y="245.5" width="12.2" height="24.65" shape-rendering="crispEdges"/><rect fill="#1e1e1e" x="646.6" y="245.5" width="146.4" height="24.65" shape-rendering="crispEdges"/><rect fill="#1e1e1e" x="793" y="245.5" width="85.4" height="24.65" shape-rendering="crispEdges"/><rect fill="#1e1e1e" x="878.4" y="245.5" width="12.2" height="24.65" shape-rendering="crispEdges"/><rect fill="#1e1e1e" x="890.6" y="245.5" width="561.2" height="24.65" shape-rendering="crispEdges"/><rect fill="#1e1e1e" x="1451.8" y="245.5" width="12.2" height="24.65" shape-rendering="crispEdges"/><rect fill="#1e1e1e" x="0" y="269.9" width="12.2" height="24.65" shape-rendering="crispEdges"/><rect fill="#1e1e1e" x="12.2" y="269.9" width="12.2" height="24.65" shape-rendering="crispEdges"/><rect fill="#1e1e1e" x="24.4" y="269.9" width="366" height="24.65" shape-rendering="crispEdges"/><rect fill="#1e1e1e" x="390.4" y="269.9" width="12.2" height="24.65" shape-rendering="crispEdges"/><rect fill="#191919" x="402.6" y="269.9" width="12.2" height="24.65" shape-rendering="crispEdges"/><rect fill="#1e1e1e" x="414.8" y="269.9" width="219.6" height="24.65" shape-rendering="crispEdges"/><rect fill="#1e1e1e" x="634.4" y="269.9" width="12.2" height="24.65" shape-rendering="crispEdges"/><rect fill="#1e1e1e" x="646.6" y="269.9" width="231.8" height="24.65" shape-rendering="crispEdges"/><rect fill="#1e1e1e" x="878.4" y="269.9" width="12.2" height="24.65" shape-rendering="crispEdges"/><rect fill="#1e1e1e" x="890.6" y="269.9" width="561.2" height="24.65" shape-rendering="crispEdges"/><rect fill="#1e1e1e" x="1451.8" y="269.9" width="12.2" height="24.65" shape-rendering="crispEdges"/><rect fill="#1e1e1e" x="0" y="294.3" width="12.2" height="24.65" shape-rendering="crispEdges"/><rect fill="#1e1e1e" x="12.2" y="294.3" width="390.4" height="24.65" shape-rendering="crispEdges"/><rect fill="#191919" x="402.6" y="294.3" width="12.2" height="24.65" shape-rendering="crispEdges"/><rect fill="#1e1e1e" x="414.8" y="294.3" width="219.6" height="24.65" shape-rendering="crispEdges"/><rect fill="#1e1e1e" x="634.4" y="294.3" width="12.2" height="24.65" shape-rendering="crispEdges"/><rect fill="#1e1e1e" x="646.6" y="294.3" width="244" height="24.65" shape-rendering="crispEdges"/><rect fill="#1e1e1e" x="890.6" y="294.3" width="561.2" height="24.65" shape-rendering="crispEdges"/><rect fill="#1e1e1e" x="1451.8" y="294.3" width="12.2" height="24.65" shape-rendering="crispEdges"/><rect fill="#1e1e1e" x="0" y="318.7" width="12.2" height="24.65" shape-rendering="crispEdges"/><rect fill="#1e1e1e" x="12.2" y="318.7" width="12.2" height="24.65" shape-rendering="crispEdges"/><rect fill="#1e1e1e" x="24.4" y="318.7" width="36.6" height="24.65" shape-rendering="crispEdges"/><rect fill="#1e1e1e" x="61" y="318.7" width="329.4" height="24.65" shape-rendering="crispEdges"/><rect fill="#1e1e1e" x="390.4" y="318.7" width="12.2" height="24.65" shape-rendering="crispEdges"/><rect fill="#191919" x="402.6" y="318.7" width="12.2" height="24.65" shape-rendering="crispEdges"/><rect fill="#1e1e1e" x="414.8" y="318.7" width="24.4" height="24.65" shape-rendering="crispEdges"/><rect fill="#1e1e1e" x="439.2" y="318.7" width="170.8" height="24.65" shape-rendering="crispEdges"/><rect fill="#1e1e1e" x="610" y="318.7" width="24.4" height="24.65" shape-rendering="crispEdges"/><rect fill="#1e1e1e" x="634.4" y="318.7" width="12.2" height="24.65" shape-rendering="crispEdges"/><rect fill="#1e1e1e" x="646.6" y="318.7" width="134.2" height="24.65" shape-rendering="crispEdges"/><rect fill="#1e1e1e" x="780.8" y="318.7" width="97.6" height="24.65" shape-rendering="crispEdges"/><rect fill="#1e1e1e" x="878.4" y="318.7" width="12.2" height="24.65" shape-rendering="crispEdges"/><rect fill="#1e1e1e" x="890.6" y="318.7" width="561.2" height="24.65" shape-rendering="crispEdges"/><rect fill="#1e1e1e" x="1451.8" y="318.7" width="12.2" height="24.65" shape-rendering="crispEdges"/><rect fill="#1e1e1e" x="0" y="343.1" width="12.2" height="24.65" shape-rendering="crispEdges"/><rect fill="#1e1e1e" x="12.2" y="343.1" width="12.2" height="24.65" shape-rendering="crispEdges"/><rect fill="#1e1e1e" x="24.4" y="343.1" width="366" height="24.65" shape-rendering="crispEdges"/><rect fill="#1e1e1e" x="390.4" y="343.1" width="12.2" height="24.65" shape-rendering="crispEdges"/><rect fill="#191919" x="402.6" y="343.1" width="12.2" height="24.65" shape-rendering="crispEdges"/><rect fill="#1e1e1e" x="414.8" y="343.1" width="219.6" height="24.65" shape-rendering="crispEdges"/><rect fill="#1e1e1e" x="634.4" y="343.1" width="12.2" height="24.65" shape-rendering="crispEdges"/><rect fill="#1e1e1e" x="646.6" y="343.1" width="231.8" height="24.65" shape-rendering="crispEdges"/><rect fill="#1e1e1e" x="878.4" y="343.1" width="12.2" height="24.65" shape-rendering="crispEdges"/><rect fill="#1e1e1e" x="890.6" y="343.1" width="561.2" height="24.65" shape-rendering="crispEdges"/><rect fill="#1e1e1e" x="1451.8" y="343.1" width="12.2" height="24.65" shape-rendering="crispEdges"/><rect fill="#1e1e1e" x="0" y="367.5" width="1464" height="24.65" shape-rendering="crispEdges"/><rect fill="#1e1e1e" x="0" y="391.9" width="1464" height="24.65" shape-rendering="crispEdges"/><rect fill="#1e1e1e" x="0" y="416.3" width="1464" height="24.65" shape-rendering="crispEdges"/><rect fill="#1e1e1e" x="0" y="440.7" width="1464" height="24.65" shape-rendering="crispEdges"/><rect fill="#1e1e1e" x="0" y="465.1" width="1464" height="24.65" shape-rendering="crispEdges"/><rect fill="#1e1e1e" x="0" y="489.5" width="1464" height="24.65" shape-rendering="crispEdges"/><rect fill="#1e1e1e" x="0" y="513.9" width="1464" height="24.65" shape-rendering="crispEdges"/><rect fill="#1e1e1e" x="0" y="538.3" width="1464" height="24.65" shape-rendering="crispEdges"/><rect fill="#1e1e1e" x="0" y="562.7" width="1464" height="24.65" shape-rendering="crispEdges"/><rect fill="#1e1e1e" x="0" y="587.1" width="1464" height="24.65" shape-rendering="crispEdges"/><rect fill="#1e1e1e" x="0" y="611.5" width="1464" height="24.65" shape-rendering="crispEdges"/><rect fill="#1e1e1e" x="0" y="635.9" width="1464" height="24.65" shape-rendering="crispEdges"/><rect fill="#1e1e1e" x="0" y="660.3" width="1464" height="24.65" shape-rendering="crispEdges"/><rect fill="#1e1e1e" x="0" y="684.7" width="1464" height="24.65" shape-rendering="crispEdges"/><rect fill="#1e1e1e" x="0" y="709.1" width="1464" height="24.65" shape-rendering="crispEdges"/><rect fill="#1e1e1e" x="0" y="733.5" width="1464" height="24.65" shape-rendering="crispEdges"/><rect fill="#1e1e1e" x="0" y="757.9" width="1464" height="24.65" shape-rendering="crispEdges"/><rect fill="#1e1e1e" x="0" y="782.3" width="1464" height="24.65" shape-rendering="crispEdges"/><rect fill="#1e1e1e" x="0" y="806.7" width="1464" height="24.65" shape-rendering="crispEdges"/><rect fill="#1e1e1e" x="0" y="831.1" width="1464" height="24.65" shape-rendering="crispEdges"/><rect fill="#242f38" x="0" y="855.5" width="48.8" height="24.65" shape-rendering="crispEdges"/><rect fill="#242f38" x="48.8" y="855.5" width="85.4" height="24.65" shape-rendering="crispEdges"/><rect fill="#242f38" x="134.2" y="855.5" width="61" height="24.65" shape-rendering="crispEdges"/><rect fill="#242f38" x="195.2" y="855.5" width="73.2" height="24.65" shape-rendering="crispEdges"/><rect fill="#242f38" x="268.4" y="855.5" width="1049.2" height="24.65" shape-rendering="crispEdges"/><rect fill="#242f38" x="1317.6" y="855.5" width="12.2" height="24.65" shape-rendering="crispEdges"/><rect fill="#242f38" x="1329.8" y="855.5" width="24.4" height="24.65" shape-rendering="crispEdges"/><rect fill="#242f38" x="1354.2" y="855.5" width="97.6" height="24.65" shape-rendering="crispEdges"/><rect fill="#242f38" x="1451.8" y="855.5" width="12.2" height="24.65" shape-rendering="crispEdges"/>
    <g class="terminal-3994067903-matrix">
    <text class="terminal-3994067903-r2" x="12.2" y="20" textLength="12.2" clip-path="url(#terminal-3994067903-line-0)">⭘</text><text class="terminal-3994067903-r2" x="451.4" y="20" textLength="146.4" clip-path="url(#terminal-3994067903-line-0)">MOSAIC&#160;v0.01</text><text class="terminal-3994067903-r3" x="597.8" y="20" textLength="36.6" clip-path="url(#terminal-3994067903-line-0)">&#160;—&#160;</text><text class="terminal-3994067903-r3" x="634.4" y="20" textLength="353.8" clip-path="url(#terminal-3994067903-line-0)">EGFRn&#160;chain&#160;A&#160;|&#160;Configuration</text><text class="terminal-3994067903-r1" x="1464" y="20" textLength="12.2" clip-path="url(#terminal-3994067903-line-0)">
</text><text class="terminal-3994067903-r4" x="12.2" y="44.4" textLength="170.8" clip-path="url(#terminal-3994067903-line-1)">Run&#160;Parameters</text><text class="terminal-3994067903-r5" x="207.4" y="44.4" textLength="48.8" clip-path="url(#terminal-3994067903-line-1)">Loss</text><text class="terminal-3994067903-r5" x="280.6" y="44.4" textLength="109.8" clip-path="url(#terminal-3994067903-line-1)">Optimizer</text><text class="terminal-3994067903-r5" x="414.8" y="44.4" textLength="85.4" clip-path="url(#terminal-3994067903-line-1)">Ranking</text><text class="terminal-3994067903-r5" x="524.6" y="44.4" textLength="97.6" clip-path="url(#terminal-3994067903-line-1)">Hotspots</text><text class="terminal-3994067903-r1" x="1464" y="44.4" textLength="12.2" clip-path="url(#terminal-3994067903-line-1)">
</text><text class="terminal-3994067903-r6" x="0" y="68.8" textLength="12.2" clip-path="url(#terminal-3994067903-line-2)">╸</text><text class="terminal-3994067903-r7" x="12.2" y="68.8" textLength="170.8" clip-path="url(#terminal-3994067903-line-2)">━━━━━━━━━━━━━━</text><text class="terminal-3994067903-r6" x="183" y="68.8" textLength="12.2" clip-path="url(#terminal-3994067903-line-2)">╺</text><text class="terminal-3994067903-r6" x="195.2" y="68.8" textLength="1268.8" clip-path="url(#terminal-3994067903-line-2)">━━━━━━━━━━━━━━━━━━━━━━━━━━━━━━━━━━━━━━━━━━━━━━━━━━━━━━━━━━━━━━━━━━━━━━━━━━━━━━━━━━━━━━━━━━━━━━━━━━━━━━━━</text><text class="terminal-3994067903-r1" x="1464" y="68.8" textLength="12.2" clip-path="url(#terminal-3994067903-line-2)">
</text><text class="terminal-3994067903-r8" x="402.6" y="93.2" textLength="12.2" clip-path="url(#terminal-3994067903-line-3)">▊</text><text class="terminal-3994067903-r9" x="414.8" y="93.2" textLength="219.6" clip-path="url(#terminal-3994067903-line-3)">▔▔▔▔▔▔▔▔▔▔▔▔▔▔▔▔▔▔</text><text class="terminal-3994067903-r9" x="634.4" y="93.2" textLength="12.2" clip-path="url(#terminal-3994067903-line-3)">▎</text><text class="terminal-3994067903-r1" x="1464" y="93.2" textLength="12.2" clip-path="url(#terminal-3994067903-line-3)">
</text><text class="terminal-3994067903-r10" x="24.4" y="117.6" textLength="158.6" clip-path="url(#terminal-3994067903-line-4)">binder_length</text><text class="terminal-3994067903-r8" x="402.6" y="117.6" textLength="12.2" clip-path="url(#terminal-3994067903-line-4)">▊</text><text class="terminal-3994067903-r11" x="439.2" y="117.6" textLength="36.6" clip-path="url(#terminal-3994067903-line-4)">100</text><text class="terminal-3994067903-r9" x="634.4" y="117.6" textLength="12.2" clip-path="url(#terminal-3994067903-line-4)">▎</text><text class="terminal-3994067903-r12" x="646.6" y="117.6" textLength="170.8" clip-path="url(#terminal-3994067903-line-4)">(default:&#160;120)</text><text class="terminal-3994067903-r1" x="1464" y="117.6" textLength="12.2" clip-path="url(#terminal-3994067903-line-4)">
</text><text class="terminal-3994067903-r8" x="402.6" y="142" textLength="12.2" clip-path="url(#terminal-3994067903-line-5)">▊</text><text class="terminal-3994067903-r9" x="414.8" y="142" textLength="219.6" clip-path="url(#terminal-3994067903-line-5)">▁▁▁▁▁▁▁▁▁▁▁▁▁▁▁▁▁▁</text><text class="terminal-3994067903-r9" x="634.4" y="142" textLength="12.2" clip-path="url(#terminal-3994067903-line-5)">▎</text><text class="terminal-3994067903-r1" x="1464" y="142" textLength="12.2" clip-path="url(#terminal-3994067903-line-5)">
</text><text class="terminal-3994067903-r8" x="402.6" y="166.4" textLength="12.2" clip-path="url(#terminal-3994067903-line-6)">▊</text><text class="terminal-3994067903-r9" x="414.8" y="166.4" textLength="219.6" clip-path="url(#terminal-3994067903-line-6)">▔▔▔▔▔▔▔▔▔▔▔▔▔▔▔▔▔▔</text><text class="terminal-3994067903-r9" x="634.4" y="166.4" textLength="12.2" clip-path="url(#terminal-3994067903-line-6)">▎</text><text class="terminal-3994067903-r1" x="1464" y="166.4" textLength="12.2" clip-path="url(#terminal-3994067903-line-6)">
</text><text class="terminal-3994067903-r10" x="24.4" y="190.8" textLength="134.2" clip-path="url(#terminal-3994067903-line-7)">num_designs</text><text class="terminal-3994067903-r8" x="402.6" y="190.8" textLength="12.2" clip-path="url(#terminal-3994067903-line-7)">▊</text><text class="terminal-3994067903-r11" x="439.2" y="190.8" textLength="24.4" clip-path="url(#terminal-3994067903-line-7)">30</text><text class="terminal-3994067903-r9" x="634.4" y="190.8" textLength="12.2" clip-path="url(#terminal-3994067903-line-7)">▎</text><text class="terminal-3994067903-r12" x="646.6" y="190.8" textLength="158.6" clip-path="url(#terminal-3994067903-line-7)">(default:&#160;32)</text><text class="terminal-3994067903-r1" x="1464" y="190.8" textLength="12.2" clip-path="url(#terminal-3994067903-line-7)">
</text><text class="terminal-3994067903-r8" x="402.6" y="215.2" textLength="12.2" clip-path="url(#terminal-3994067903-line-8)">▊</text><text class="terminal-3994067903-r9" x="414.8" y="215.2" textLength="219.6" clip-path="url(#terminal-3994067903-line-8)">▁▁▁▁▁▁▁▁▁▁▁▁▁▁▁▁▁▁</text><text class="terminal-3994067903-r9" x="634.4" y="215.2" textLength="12.2" clip-path="url(#terminal-3994067903-line-8)">▎</text><text class="terminal-3994067903-r1" x="1464" y="215.2" textLength="12.2" clip-path="url(#terminal-3994067903-line-8)">
</text><text class="terminal-3994067903-r8" x="402.6" y="239.6" textLength="12.2" clip-path="url(#terminal-3994067903-line-9)">▊</text><text class="terminal-3994067903-r9" x="414.8" y="239.6" textLength="219.6" clip-path="url(#terminal-3994067903-line-9)">▔▔▔▔▔▔▔▔▔▔▔▔▔▔▔▔▔▔</text><text class="terminal-3994067903-r9" x="634.4" y="239.6" textLength="12.2" clip-path="url(#terminal-3994067903-line-9)">▎</text><text class="terminal-3994067903-r1" x="1464" y="239.6" textLength="12.2" clip-path="url(#terminal-3994067903-line-9)">
</text><text class="terminal-3994067903-r10" x="24.4" y="264" textLength="97.6" clip-path="url(#terminal-3994067903-line-10)">num_gpus</text><text class="terminal-3994067903-r8" x="402.6" y="264" textLength="12.2" clip-path="url(#terminal-3994067903-line-10)">▊</text><text class="terminal-3994067903-r11" x="439.2" y="264" textLength="12.2" clip-path="url(#terminal-3994067903-line-10)">5</text><text class="terminal-3994067903-r9" x="634.4" y="264" textLength="12.2" clip-path="url(#terminal-3994067903-line-10)">▎</text><text class="terminal-3994067903-r12" x="646.6" y="264" textLength="146.4" clip-path="url(#terminal-3994067903-line-10)">(default:&#160;1)</text><text class="terminal-3994067903-r1" x="1464" y="264" textLength="12.2" clip-path="url(#terminal-3994067903-line-10)">
</text><text class="terminal-3994067903-r8" x="402.6" y="288.4" textLength="12.2" clip-path="url(#terminal-3994067903-line-11)">▊</text><text class="terminal-3994067903-r9" x="414.8" y="288.4" textLength="219.6" clip-path="url(#terminal-3994067903-line-11)">▁▁▁▁▁▁▁▁▁▁▁▁▁▁▁▁▁▁</text><text class="terminal-3994067903-r9" x="634.4" y="288.4" textLength="12.2" clip-path="url(#terminal-3994067903-line-11)">▎</text><text class="terminal-3994067903-r1" x="1464" y="288.4" textLength="12.2" clip-path="url(#terminal-3994067903-line-11)">
</text><text class="terminal-3994067903-r8" x="402.6" y="312.8" textLength="12.2" clip-path="url(#terminal-3994067903-line-12)">▊</text><text class="terminal-3994067903-r9" x="414.8" y="312.8" textLength="219.6" clip-path="url(#terminal-3994067903-line-12)">▔▔▔▔▔▔▔▔▔▔▔▔▔▔▔▔▔▔</text><text class="terminal-3994067903-r9" x="634.4" y="312.8" textLength="12.2" clip-path="url(#terminal-3994067903-line-12)">▎</text><text class="terminal-3994067903-r1" x="1464" y="312.8" textLength="12.2" clip-path="url(#terminal-3994067903-line-12)">
</text><text class="terminal-3994067903-r10" x="24.4" y="337.2" textLength="36.6" clip-path="url(#terminal-3994067903-line-13)">run</text><text class="terminal-3994067903-r8" x="402.6" y="337.2" textLength="12.2" clip-path="url(#terminal-3994067903-line-13)">▊</text><text class="terminal-3994067903-r9" x="634.4" y="337.2" textLength="12.2" clip-path="url(#terminal-3994067903-line-13)">▎</text><text class="terminal-3994067903-r12" x="646.6" y="337.2" textLength="134.2" clip-path="url(#terminal-3994067903-line-13)">(default:&#160;)</text><text class="terminal-3994067903-r1" x="1464" y="337.2" textLength="12.2" clip-path="url(#terminal-3994067903-line-13)">
</text><text class="terminal-3994067903-r8" x="402.6" y="361.6" textLength="12.2" clip-path="url(#terminal-3994067903-line-14)">▊</text><text class="terminal-3994067903-r9" x="414.8" y="361.6" textLength="219.6" clip-path="url(#terminal-3994067903-line-14)">▁▁▁▁▁▁▁▁▁▁▁▁▁▁▁▁▁▁</text><text class="terminal-3994067903-r9" x="634.4" y="361.6" textLength="12.2" clip-path="url(#terminal-3994067903-line-14)">▎</text><text class="terminal-3994067903-r1" x="1464" y="361.6" textLength="12.2" clip-path="url(#terminal-3994067903-line-14)">
</text><text class="terminal-3994067903-r1" x="1464" y="386" textLength="12.2" clip-path="url(#terminal-3994067903-line-15)">
</text><text class="terminal-3994067903-r1" x="1464" y="410.4" textLength="12.2" clip-path="url(#terminal-3994067903-line-16)">
</text><text class="terminal-3994067903-r1" x="1464" y="434.8" textLength="12.2" clip-path="url(#terminal-3994067903-line-17)">
</text><text class="terminal-3994067903-r1" x="1464" y="459.2" textLength="12.2" clip-path="url(#terminal-3994067903-line-18)">
</text><text class="terminal-3994067903-r1" x="1464" y="483.6" textLength="12.2" clip-path="url(#terminal-3994067903-line-19)">
</text><text class="terminal-3994067903-r1" x="1464" y="508" textLength="12.2" clip-path="url(#terminal-3994067903-line-20)">
</text><text class="terminal-3994067903-r1" x="1464" y="532.4" textLength="12.2" clip-path="url(#terminal-3994067903-line-21)">
</text><text class="terminal-3994067903-r1" x="1464" y="556.8" textLength="12.2" clip-path="url(#terminal-3994067903-line-22)">
</text><text class="terminal-3994067903-r1" x="1464" y="581.2" textLength="12.2" clip-path="url(#terminal-3994067903-line-23)">
</text><text class="terminal-3994067903-r1" x="1464" y="605.6" textLength="12.2" clip-path="url(#terminal-3994067903-line-24)">
</text><text class="terminal-3994067903-r1" x="1464" y="630" textLength="12.2" clip-path="url(#terminal-3994067903-line-25)">
</text><text class="terminal-3994067903-r1" x="1464" y="654.4" textLength="12.2" clip-path="url(#terminal-3994067903-line-26)">
</text><text class="terminal-3994067903-r1" x="1464" y="678.8" textLength="12.2" clip-path="url(#terminal-3994067903-line-27)">
</text><text class="terminal-3994067903-r1" x="1464" y="703.2" textLength="12.2" clip-path="url(#terminal-3994067903-line-28)">
</text><text class="terminal-3994067903-r1" x="1464" y="727.6" textLength="12.2" clip-path="url(#terminal-3994067903-line-29)">
</text><text class="terminal-3994067903-r1" x="1464" y="752" textLength="12.2" clip-path="url(#terminal-3994067903-line-30)">
</text><text class="terminal-3994067903-r1" x="1464" y="776.4" textLength="12.2" clip-path="url(#terminal-3994067903-line-31)">
</text><text class="terminal-3994067903-r1" x="1464" y="800.8" textLength="12.2" clip-path="url(#terminal-3994067903-line-32)">
</text><text class="terminal-3994067903-r1" x="1464" y="825.2" textLength="12.2" clip-path="url(#terminal-3994067903-line-33)">
</text><text class="terminal-3994067903-r1" x="1464" y="849.6" textLength="12.2" clip-path="url(#terminal-3994067903-line-34)">
</text><text class="terminal-3994067903-r13" x="0" y="874" textLength="48.8" clip-path="url(#terminal-3994067903-line-35)">&#160;f5&#160;</text><text class="terminal-3994067903-r2" x="48.8" y="874" textLength="85.4" clip-path="url(#terminal-3994067903-line-35)">Launch&#160;</text><text class="terminal-3994067903-r13" x="134.2" y="874" textLength="61" clip-path="url(#terminal-3994067903-line-35)">&#160;esc&#160;</text><text class="terminal-3994067903-r2" x="195.2" y="874" textLength="73.2" clip-path="url(#terminal-3994067903-line-35)">Abort&#160;</text><text class="terminal-3994067903-r14" x="1317.6" y="874" textLength="12.2" clip-path="url(#terminal-3994067903-line-35)">▏</text><text class="terminal-3994067903-r13" x="1329.8" y="874" textLength="24.4" clip-path="url(#terminal-3994067903-line-35)">^p</text><text class="terminal-3994067903-r2" x="1354.2" y="874" textLength="97.6" clip-path="url(#terminal-3994067903-line-35)">&#160;palette</text>
    </g>
    </g>
</svg>
